<?xml version="1.0" encoding="UTF-8"?>
<svg width="22px" height="17px" viewBox="0 0 22 17" version="1.1" xmlns="http://www.w3.org/2000/svg" xmlns:xlink="http://www.w3.org/1999/xlink">
    <!-- Generator: Sketch 43.2 (39069) - http://www.bohemiancoding.com/sketch -->
    <title>Shape</title>
    <desc>Created with Sketch.</desc>
    <defs></defs>
    <g id="Episode/Story" stroke="none" stroke-width="1" fill="none" fill-rule="evenodd">
        <g id="TAL-Episode-06" transform="translate(-503.000000, -366.000000)" fill="#FFFFFF">
            <g id="HERO">
                <g id="CTAs" transform="translate(379.000000, 364.000000)">
                    <g id="Group-2" transform="translate(124.000000, 2.000000)">
                        <path d="M21.7597579,2.11363636 C19.8476475,1.39711632 18.8911081,2.11363636 18.8911081,2.11363636 L9.33830352,7.51686217 L9.09039252,7.3702346 C9.09039252,7.3702346 7.50681264,5.73411535 5.23542501,5.73411535 C5.23542501,5.73411535 5.11268002,5.77174976 4.93207299,5.81256109 C5.76247797,5.23851417 6.30889898,4.27492669 6.30889898,3.1840176 C6.30889898,1.42815249 4.89382109,0 3.15457054,0 C1.41507788,0 0.000242100579,1.42815249 0.000242100579,3.1840176 C0.000242100579,4.59408602 0.913203382,5.7913001 2.17285269,6.20894428 C2.92602759,6.57184751 4.06511081,7.03567937 5.23566711,7.19061584 C5.23566711,7.19061584 6.70763863,7.5601173 7.81355407,8.50024438 C6.70739653,9.4398827 5.23566711,9.80889541 5.23566711,9.80889541 C4.06511081,9.96407625 2.92602759,10.4279081 2.17285269,10.7908113 C0.912961282,11.2084555 0,12.4061584 0,13.8159824 C0,15.5720919 1.41483578,17 3.15432844,17 C4.89357899,17 6.30865688,15.5718475 6.30865688,13.8159824 C6.30865688,12.7258065 5.76223587,11.7612414 4.93183089,11.1874389 C5.11268002,11.2289834 5.23518291,11.266129 5.23518291,11.266129 C7.50681264,11.266129 9.09015042,9.62952102 9.09015042,9.62952102 L9.33806142,9.48289345 L18.8913502,14.886608 C18.8913502,14.886608 19.8476475,15.6031281 21.76,14.886608 L10.995482,8.50048876 L21.7597579,2.11363636 L21.7597579,2.11363636 Z M3.15432844,5.10068426 C2.10724344,5.10068426 1.2550494,4.24046921 1.2550494,3.1840176 C1.2550494,2.12707722 2.10724344,1.26710655 3.15432844,1.26710655 C4.20117134,1.26710655 5.05312328,2.1273216 5.05312328,3.1840176 C5.05336538,4.24071359 4.20117134,5.10068426 3.15432844,5.10068426 L3.15432844,5.10068426 Z M5.05336538,13.8159824 C5.05336538,14.8726784 4.20117134,15.7328935 3.15457054,15.7328935 C2.10748554,15.7328935 1.2552915,14.8726784 1.2552915,13.8159824 C1.2552915,12.7592864 2.10748554,11.8990714 3.15457054,11.8990714 C4.20117134,11.8993157 5.05336538,12.7592864 5.05336538,13.8159824 L5.05336538,13.8159824 Z M9.40052336,8.99266862 C9.13082332,8.99266862 8.9126907,8.77272727 8.9126907,8.50097752 C8.9126907,8.228739 9.13082332,8.00855327 9.40052336,8.00855327 C9.66949711,8.00855327 9.88762973,8.228739 9.88762973,8.50097752 C9.88762973,8.77272727 9.66949711,8.99266862 9.40052336,8.99266862 L9.40052336,8.99266862 Z" id="Shape"></path>
                    </g>
                </g>
            </g>
        </g>
    </g>
</svg>