<?xml version="1.0" encoding="UTF-8"?>
<svg width="30px" height="30px" viewBox="0 0 30 30" version="1.1" xmlns="http://www.w3.org/2000/svg" xmlns:xlink="http://www.w3.org/1999/xlink">
    <!-- Generator: Sketch 46.2 (44496) - http://www.bohemiancoding.com/sketch -->
    <title>fullscreen</title>
    <desc>Created with Sketch.</desc>
    <defs></defs>
    <g id="Extras:-Article/Slideshow" stroke="none" stroke-width="1" fill="none" fill-rule="evenodd">
        <g id="TAL-Article-04" transform="translate(-1055.000000, -729.000000)">
            <g id="IMAGE---01" transform="translate(378.000000, 719.000000)">
                <g id="fullscreen" transform="translate(677.000000, 10.000000)">
                    <rect id="Rectangle-3" fill="#FFFFFF" x="0" y="0" width="30" height="30"></rect>
                    <path d="M24.9983026,5 L24.0987015,5 L18.4397013,5 L18.4397013,6.79750488 L21.9141984,6.79750488 L16.3180005,12.2579139 L17.6045998,13.6073156 L23.1991004,8.08410422 L23.1991004,11.7436137 L25,11.7436137 L25,5.89450904 L25,5 L24.9983026,5 Z M13.6819995,17.7828227 L12.3325978,16.4996181 L6.80259696,21.8938301 L6.80259696,18.36332 L5,18.36332 L5,24.2107273 L5,25.1052364 L5.89960112,25.1052364 L11.556904,25.1052364 L11.556904,23.3077315 L8.02299924,23.3077315 L13.6819995,17.7828227 L13.6819995,17.7828227 Z" id="Shape" fill="#EC0000" fill-rule="nonzero"></path>
                </g>
            </g>
        </g>
    </g>
</svg>