<?xml version="1.0" encoding="UTF-8"?>
<svg width="37px" height="22px" viewBox="0 0 37 22" version="1.1" xmlns="http://www.w3.org/2000/svg" xmlns:xlink="http://www.w3.org/1999/xlink">
    <!-- Generator: Sketch 43.2 (39069) - http://www.bohemiancoding.com/sketch -->
    <title>icon: mail</title>
    <desc>Created with Sketch.</desc>
    <defs></defs>
    <g id="Player" stroke="none" stroke-width="1" fill="none" fill-rule="evenodd">
        <g id="TAL-Mobile-Player-04" transform="translate(-268.000000, -221.000000)" fill="#555555">
            <g id="icons" transform="translate(40.000000, 197.000000)">
                <g id="icon:-mail" transform="translate(228.000000, 24.000000)">
                    <path d="M10.6132939,10.7978694 C10.6128449,10.7341143 10.5850082,10.673502 10.5369673,10.631298 L0.372518367,1.68807347 C0.306518367,1.62970612 0.212232653,1.61623673 0.131865306,1.6521551 C0.0519469388,1.68852245 -0.000134693878,1.7688898 -0.000134693878,1.8568898 L-0.000134693878,20.0706449 C-0.000134693878,20.1599918 0.0523959184,20.2403592 0.134110204,20.2758286 C0.162844898,20.289298 0.19382449,20.2951347 0.224355102,20.2951347 C0.279130612,20.2951347 0.333457143,20.2749306 0.375661224,20.2363184 L10.5401102,10.9657878 C10.5872531,10.9226857 10.6137429,10.8616245 10.6132939,10.7978694" id="Fill-1"></path>
                    <path d="M18.0354653,14.2384449 C18.0776694,14.2757102 18.130649,14.2945673 18.1836286,14.2945673 C18.2366082,14.2945673 18.2895878,14.2757102 18.3317918,14.2384449 L34.0676286,0.393261224 C34.1381184,0.331302041 34.1623633,0.232526531 34.1295878,0.14542449 C34.0968122,0.0578734694 34.0128531,-4.48979594e-05 33.9194653,-4.48979594e-05 L2.44779184,-4.48979594e-05 C2.35440408,-4.48979594e-05 2.2704449,0.0578734694 2.23766939,0.14542449 C2.20489388,0.232526531 2.22913878,0.331302041 2.29962857,0.393261224 L18.0354653,14.2384449 Z" id="Fill-4"></path>
                    <path d="M24.0951633,12.4241184 C24.0107551,12.3468939 23.881,12.3459959 23.7956939,12.4214245 L18.9251633,16.7069347 C18.5147959,17.0674653 17.852551,17.0674653 17.4421837,16.7069347 L12.5712041,12.4214245 C12.485898,12.3459959 12.3565918,12.3468939 12.2721837,12.4241184 L2.20157143,21.6097918 C2.13332653,21.6722 2.10997959,21.7700776 2.14365306,21.8567306 C2.17732653,21.9429347 2.26038776,21.9999551 2.35287755,21.9999551 L34.0144694,21.9999551 C34.1069592,21.9999551 34.1900204,21.9429347 34.2236939,21.8567306 C34.2573673,21.7700776 34.2340204,21.6722 34.1657755,21.6097918 L24.0951633,12.4241184 Z" id="Fill-7"></path>
                    <path d="M36.2353918,1.65233469 C36.1554735,1.61641633 36.0607388,1.62943673 35.9947388,1.68825306 L25.8302898,10.6314776 C25.782249,10.6736816 25.7548612,10.7342939 25.7539633,10.798049 C25.7535143,10.8618041 25.7800041,10.9228653 25.8271469,10.9659673 L35.9915959,20.236498 C36.0338,20.2751102 36.0881265,20.2953143 36.142902,20.2953143 C36.1734327,20.2953143 36.2044122,20.2890286 36.2335959,20.2760082 C36.3148612,20.2405388 36.3673918,20.1597224 36.3673918,20.0708245 L36.3673918,1.85706939 C36.3673918,1.76862041 36.3157592,1.68870204 36.2353918,1.65233469" id="Fill-9"></path>
                </g>
            </g>
        </g>
    </g>
</svg>