<?xml version="1.0" encoding="UTF-8"?>
<svg width="17px" height="17px" viewBox="0 0 17 17" version="1.1" xmlns="http://www.w3.org/2000/svg" xmlns:xlink="http://www.w3.org/1999/xlink">
    <!-- Generator: Sketch 47.1 (45422) - http://www.bohemiancoding.com/sketch -->
    <title>Combined Shape</title>
    <desc>Created with Sketch.</desc>
    <defs></defs>
    <g id="Archive" stroke="none" stroke-width="1" fill="none" fill-rule="evenodd">
        <g id="Archive-00-Default" transform="translate(-35.000000, -96.000000)" fill-rule="nonzero" fill="#FFFFFF">
            <g id="SEARCH/FILTER" transform="translate(0.000000, 60.000000)">
                <g id="search" transform="translate(20.000000, 20.000000)">
                    <path d="M24.0181057,19.2041166 C22.4126169,17.5986278 19.8096053,17.5986278 18.2041166,19.2041166 C16.5986278,20.8096053 16.5986278,23.4126169 18.2041166,25.0181057 C19.8096053,26.6235944 22.4126169,26.6235944 24.0181057,25.0181057 C25.6235944,23.4126169 25.6235944,20.8096053 24.0181057,19.2041166 Z M24.524686,27.1813359 C22.1480282,28.7852261 18.8931376,28.5355538 16.789903,26.4323192 C14.4033657,24.0457819 14.4033657,20.1764403 16.789903,17.789903 C19.1764403,15.4033657 23.0457819,15.4033657 25.4323192,17.789903 C27.565498,19.9230818 27.7919596,23.2409429 26.1117039,25.6256571 L31.5897605,31.1037136 L30.0184121,32.675062 L24.524686,27.1813359 Z" id="Combined-Shape"></path>
                </g>
            </g>
        </g>
    </g>
</svg>