<?xml version="1.0" encoding="UTF-8"?>
<svg width="16px" height="13px" viewBox="0 0 16 13" version="1.1" xmlns="http://www.w3.org/2000/svg" xmlns:xlink="http://www.w3.org/1999/xlink">
    <!-- Generator: Sketch 43.2 (39069) - http://www.bohemiancoding.com/sketch -->
    <title>twitter</title>
    <desc>Created with Sketch.</desc>
    <defs></defs>
    <g id="Episode/Story" stroke="none" stroke-width="1" fill="none" fill-rule="evenodd">
        <g id="TAL-Episode-06" transform="translate(-769.000000, -368.000000)" fill="#FFFFFF">
            <g id="HERO">
                <g id="CTAs" transform="translate(379.000000, 364.000000)">
                    <g id="Group-4" transform="translate(363.000000, 0.000000)">
                        <path d="M32.0305594,17 C38.0669364,17 41.3680271,11.9990009 41.3680271,7.66253236 C41.3680271,7.52042544 41.3651478,7.37902234 41.3586215,7.23825906 C41.9993503,6.77508392 42.556389,6.19712272 42.9958263,5.53905443 C42.4077558,5.80029826 41.7749609,5.97631633 41.1111341,6.05571962 C41.7886533,5.64948961 42.3089016,5.00658536 42.5542135,4.24032129 C41.920011,4.61622321 41.2179222,4.88968786 40.4704053,5.03691345 C39.8715215,4.39899989 39.018688,4 38.0748703,4 C36.2624152,4 34.7925907,5.46982449 34.7925907,7.28157576 C34.7925907,7.53917255 34.8214472,7.78953922 34.8777525,8.02986052 C32.1503362,7.89274429 29.7317032,6.58678105 28.1133095,4.60105917 C27.8312071,5.08592466 27.6688175,5.64948961 27.6688175,6.25054878 C27.6688175,7.3891317 28.2482503,8.39424544 29.1292364,8.98225202 C28.5909449,8.96568034 28.0851569,8.81775094 27.6428403,8.57173513 C27.6421365,8.58542756 27.6421365,8.59911998 27.6421365,8.61351623 C27.6421365,10.2031175 28.7735532,11.5300032 30.2750495,11.8309167 C29.9994094,11.9059052 29.7093731,11.9463426 29.4099312,11.9463426 C29.1985304,11.9463426 28.992888,11.9254201 28.7930042,11.8871581 C29.2107512,13.1910099 30.422275,14.1398183 31.8588282,14.1665633 C30.7354093,15.0467816 29.3204825,15.5713808 27.7828357,15.5713808 C27.5180728,15.5713808 27.256829,15.5562167 27,15.5258886 C28.452421,16.4567178 30.1768991,17 32.0305594,17" id="twitter"></path>
                    </g>
                </g>
            </g>
        </g>
    </g>
</svg>