<?xml version="1.0" encoding="UTF-8"?>
<svg width="19px" height="14px" viewBox="0 0 19 14" version="1.1" xmlns="http://www.w3.org/2000/svg" xmlns:xlink="http://www.w3.org/1999/xlink">
    <!-- Generator: Sketch 46.2 (44496) - http://www.bohemiancoding.com/sketch -->
    <title>Group 2</title>
    <desc>Created with Sketch.</desc>
    <defs></defs>
    <g id="Archive" stroke="none" stroke-width="1" fill="none" fill-rule="evenodd">
        <g id="Archive-01" transform="translate(-250.000000, -994.000000)" fill="#EC0000">
            <g id="2016" transform="translate(247.000000, 252.000000)">
                <g id="Row-3" transform="translate(0.000000, 734.000000)">
                    <g id="01" transform="translate(0.000000, 8.000000)">
                        <g id="Group-2" transform="translate(3.000000, 0.000000)">
                            <path d="M12.0113913,1.52173913 L4.26086957,1.52173913 C3.84026087,1.52173913 3.5,1.18086957 3.5,0.760869565 C3.5,0.340869565 3.84026087,0 4.26086957,0 L12.0113913,0 C12.432,0 12.7722609,0.340869565 12.7722609,0.760869565 C12.7722609,1.18086957 12.432,1.52173913 12.0113913,1.52173913 Z" id="Shape"></path>
                            <path d="M14.0687826,13.7976087 L0.760869565,13.7976087 C0.341478261,13.7976087 0,13.4567391 0,13.0367391 L0,3.38586957 C0,2.96586957 0.341478261,2.625 0.760869565,2.625 L14.0693913,2.625 C14.4887826,2.625 14.8302609,2.96586957 14.8302609,3.38586957 L14.8302609,5.61308696 L17.0258261,4.08404348 C17.2577391,3.92273913 17.5608696,3.90386957 17.8128696,4.03413043 C18.0636522,4.1656087 18.2206957,4.42552174 18.2206957,4.70856522 L18.2206957,11.2946522 C18.2206957,11.5783043 18.0636522,11.8382174 17.8128696,11.969087 C17.5608696,12.0993478 17.2577391,12.0804783 17.0258261,11.9191739 L14.8302609,10.3907391 L14.8302609,13.0367391 C14.8296522,13.4567391 14.4887826,13.7976087 14.0687826,13.7976087 Z M1.52173913,12.2758696 L13.3085217,12.2758696 L13.3085217,8.93473913 C13.3085217,8.65108696 13.4655652,8.39117391 13.7175652,8.26030435 C13.9671304,8.12943478 14.2714783,8.14708696 14.5033913,8.31082609 L16.6989565,9.83926087 L16.6989565,6.1663913 L14.5046087,7.69482609 C14.2714783,7.85856522 13.9683478,7.87621739 13.7175652,7.74534783 C13.4655652,7.61386957 13.3085217,7.35395652 13.3085217,7.07091304 L13.3085217,4.14734783 L1.52173913,4.14734783 L1.52173913,12.2758696 Z" id="Shape"></path>
                        </g>
                    </g>
                </g>
            </g>
        </g>
    </g>
</svg>