<?xml version="1.0" encoding="UTF-8"?>
<svg width="174px" height="17px" viewBox="0 0 174 17" version="1.1" xmlns="http://www.w3.org/2000/svg" xmlns:xlink="http://www.w3.org/1999/xlink">
    <!-- Generator: Sketch 43.2 (39069) - http://www.bohemiancoding.com/sketch -->
    <title>wordmark</title>
    <desc>Created with Sketch.</desc>
    <defs></defs>
    <g id="Nav-/-Footer" stroke="none" stroke-width="1" fill="none" fill-rule="evenodd">
        <g id="Nav-Donate" transform="translate(-121.000000, -19.000000)" fill-rule="nonzero" fill="#FFFFFF">
            <g id="Nav-w/-bg">
                <g id="White-Logo---1-Horizontal" transform="translate(60.000000, 14.000000)">
                    <g id="wordmark" transform="translate(61.000000, 5.000000)">
                        <path d="M13.2328889,6.45244444 L11.9244444,4.80266667 C11.6684444,4.47318519 11.4468148,4.20533333 11.2595556,3.99911111 C11.0955674,3.81099235 10.9079369,3.64487362 10.7013333,3.50488889 C10.5268657,3.38922518 10.3347191,3.30275918 10.1324444,3.24888889 C9.89936867,3.19491831 9.66053606,3.16984089 9.42133333,3.17422222 L7.99911111,3.17422222 L7.99911111,15.3911111 L10.2711111,15.7786667 L10.2711111,16.1342222 L3.56533333,16.1342222 L3.56533333,15.7786667 L5.83733333,15.3911111 L5.83733333,3.17422222 L4.25155556,3.17422222 C4.01236371,3.1700913 3.77356159,3.19516552 3.54044444,3.24888889 C3.33720803,3.3000239 3.14461381,3.38669129 2.97155556,3.50488889 C2.76783261,3.64854911 2.5806208,3.81429715 2.41333333,3.99911111 C2.22133333,4.20533333 1.99614815,4.47318519 1.73777778,4.80266667 L0.429333333,6.45244444 L0.216,6.32444444 L0.966222222,2.488 L12.6995556,2.488 L13.4711111,6.32444444 L13.2328889,6.45244444 Z" id="Shape"></path>
                        <path d="M22.5128889,10.0968889 C22.5665237,9.44252523 22.3623822,8.79310007 21.944,8.28711111 C21.5048448,7.86478882 20.9096211,7.64447876 20.3013333,7.67911111 C19.8771285,7.67505146 19.4541448,7.72523597 19.0426667,7.82844444 C18.6170867,7.94796684 18.2084648,8.12121295 17.8266667,8.344 L17.8266667,15.4551111 L19.1564444,15.8391111 L19.1564444,16.1164444 L14.6124444,16.1164444 L14.6124444,15.8568889 L16.0346667,15.4728889 L16.0346667,2.488 L14.4702222,1.56711111 L14.4702222,1.35377778 L17.7484444,0.518222222 L17.8124444,0.568 L17.8124444,7.89955556 L17.9191111,7.94222222 C18.4640728,7.40737153 19.0875651,6.95893669 19.768,6.61244444 C20.3145655,6.34252034 20.9148922,6.19912247 21.5244444,6.19288889 C21.9557665,6.18136165 22.3843206,6.26513 22.7795556,6.43822222 C23.1151243,6.59168612 23.4116906,6.81897252 23.6471111,7.10311111 C23.8773162,7.3838614 24.0489858,7.70785753 24.152,8.056 C24.2595457,8.41712576 24.3134546,8.79209217 24.312,9.16888889 L24.312,15.4693333 L25.7342222,15.8533333 L25.7342222,16.1306667 L21.1617778,16.1306667 L21.1617778,15.8568889 L22.5128889,15.4728889 L22.5128889,10.0968889 Z" id="Shape"></path>
                        <path d="M26.9288889,7.13866667 L26.9288889,6.94666667 L30.0577778,6.17511111 L30.1431111,6.23911111 L30.1431111,15.4835556 L31.5653333,15.8675556 L31.5653333,16.1448889 L26.8435556,16.1448889 L26.8435556,15.8568889 L28.344,15.4728889 L28.344,8.03466667 L26.9288889,7.13866667 Z M28.0417778,3.05688889 C28.0412274,2.7258267 28.168616,2.40735509 28.3973333,2.168 C28.6243747,1.90989657 28.9531803,1.76433833 29.2968889,1.76977778 C29.6057485,1.76389183 29.9036466,1.88423914 30.1217471,2.10301079 C30.3398477,2.32178244 30.4592792,2.62004883 30.4524444,2.92888889 C30.4562956,3.26689659 30.3288296,3.59320958 30.0968889,3.83911111 C29.8625832,4.09924546 29.5259633,4.24351112 29.176,4.23377778 C28.869687,4.24567371 28.5730621,4.12521032 28.3617778,3.90311111 C28.1455888,3.67558787 28.030231,3.37053067 28.0417778,3.05688889 L28.0417778,3.05688889 Z" id="Shape"></path>
                        <path d="M39.6791111,13.2044444 C39.6869028,13.6697065 39.5922196,14.1309836 39.4017778,14.5555556 C39.2190945,14.951021 38.9521134,15.301737 38.6195556,15.5831111 C38.2721598,15.8755807 37.8712508,16.0977713 37.4391111,16.2373333 C36.9649068,16.3906777 36.4690234,16.466321 35.9706667,16.4613333 C35.4676391,16.4650881 34.9653451,16.4222384 34.4702222,16.3333333 C33.9811438,16.2349591 33.504251,16.0835456 33.048,15.8817778 L33.048,13.1795556 L33.4995556,13.1368889 C33.743857,13.9370191 34.1739329,14.6680264 34.7546667,15.2702222 C35.1826193,15.6858833 35.7545376,15.9202552 36.3511111,15.9244444 C36.8493359,15.9504293 37.3379986,15.780737 37.7128889,15.4515556 C38.0638799,15.1010709 38.2477125,14.6168919 38.2177778,14.1217778 C38.2248776,13.862077 38.1583109,13.6056721 38.0257778,13.3822222 C37.8873704,13.1644511 37.7087866,12.9750074 37.4995556,12.824 C37.2665128,12.652749 37.0148371,12.5084231 36.7493333,12.3937778 L35.8817778,12.0204444 C35.5522963,11.8782222 35.2275556,11.7277037 34.9075556,11.5688889 C34.599237,11.4202109 34.3112585,11.2326066 34.0506667,11.0106667 C33.7992028,10.7950982 33.5915752,10.5331494 33.4391111,10.2391111 C33.2755928,9.90783019 33.1950583,9.54176434 33.2044444,9.17244444 C33.1996864,8.76347264 33.2795828,8.35793828 33.4391111,7.98133333 C33.5930763,7.62185731 33.8236234,7.30030474 34.1146667,7.03911111 C34.4274722,6.76324023 34.7892968,6.54855769 35.1813333,6.40622222 C35.6278194,6.24400541 36.1001226,6.16448498 36.5751111,6.17155556 C37.0314102,6.17492489 37.4867385,6.21415683 37.9368889,6.28888889 C38.3359092,6.34321555 38.7280332,6.43975672 39.1066667,6.57688889 L39.1706667,8.99822222 L38.7866667,9.10488889 C38.4891355,8.41678339 38.0631627,7.79170148 37.5315556,7.26311111 C37.1703534,6.91583007 36.6920433,6.71663993 36.1911111,6.70488889 C35.7669891,6.68288478 35.3498996,6.81980169 35.0213333,7.08888889 C34.7222561,7.36062462 34.5605044,7.75195938 34.5804444,8.15555556 C34.5730606,8.41672992 34.643614,8.67418779 34.7831111,8.89511111 C34.9274921,9.11160147 35.109297,9.30063043 35.32,9.45333333 C35.5569512,9.62736203 35.8120714,9.7751887 36.0808889,9.89422222 L36.9591111,10.2782222 C37.2885926,10.4204444 37.6168889,10.570963 37.944,10.7297778 C38.2606108,10.879735 38.5559278,11.0710335 38.8222222,11.2986667 C39.0806186,11.5213427 39.2952467,11.7902307 39.4551111,12.0915556 C39.6209983,12.4381738 39.6979801,12.8206389 39.6791111,13.2044444 L39.6791111,13.2044444 Z" id="Shape"></path>
                        <path d="M59.2062222,15.7751111 L59.2062222,16.1306667 L53.0977778,16.1306667 L53.0977778,15.7751111 L55.2311111,15.3911111 L53.6453333,11.1244444 L48.952,11.1244444 L47.4088889,15.2595556 L48.952,15.7751111 L48.952,16.1306667 L45.0586667,16.1306667 L45.0586667,15.7751111 L46.5804444,15.1955556 L51.512,2.34577778 L52.5182222,2.34577778 L57.4675556,15.2702222 L59.2062222,15.7751111 Z M51.2986667,4.888 L51.256,4.888 L49.1973333,10.4382222 L53.368,10.4382222 L51.2986667,4.888 Z" id="Shape"></path>
                        <path d="M73.2791111,10.0968889 C73.3269269,9.46078417 73.168591,8.82619401 72.8275556,8.28711111 C72.5265185,7.89362963 72.0168889,7.69688889 71.2986667,7.69688889 C70.8969868,7.68577619 70.497394,7.75842942 70.1253333,7.91022222 C69.802963,8.05244444 69.4260741,8.24562963 68.9946667,8.48977778 L68.9946667,15.4764444 L70.4168889,15.8604444 L70.4168889,16.1377778 L65.8764444,16.1377778 L65.8764444,15.8568889 L67.2062222,15.4728889 L67.2062222,9.96888889 C67.2062222,9.13925926 67.0557037,8.55377778 66.7546667,8.21244444 C66.4536296,7.87111111 65.944,7.69925926 65.2257778,7.69688889 C64.8434434,7.68806847 64.4620453,7.7384418 64.0951111,7.84622222 C63.709562,7.98187143 63.3380513,8.15452868 62.9857778,8.36177778 L62.9857778,15.4728889 L64.3155556,15.8568889 L64.3155556,16.1342222 L59.768,16.1342222 L59.768,15.8568889 L61.1902222,15.4728889 L61.1902222,8.03466667 L59.7964444,7.13511111 L59.7964444,6.94311111 L62.776,6.17155556 L62.8613333,6.23555556 L62.8186667,7.94933333 L62.904,7.992 C63.4387299,7.4701822 64.035839,7.01637926 64.6817778,6.64088889 C65.2019025,6.34813137 65.7880429,6.19272461 66.3848889,6.18933333 C66.9790561,6.1511922 67.5631462,6.35658653 68.0026667,6.75822222 C68.3742113,7.12571595 68.6500996,7.57861224 68.8062222,8.07733333 L68.9128889,8.12 C69.4734423,7.58653919 70.0856374,7.11012272 70.7404444,6.69777778 C71.2606118,6.3630345 71.8641662,6.18073642 72.4826667,6.17155556 C72.9061814,6.15713483 73.3269382,6.24494495 73.7093333,6.42755556 C74.0263974,6.58819915 74.3024845,6.81928529 74.5164444,7.10311111 C74.7268734,7.38733797 74.876914,7.71161942 74.9573333,8.056 C75.043778,8.42061017 75.0867438,8.79417397 75.0853333,9.16888889 L75.0853333,15.4693333 L76.5075556,15.8533333 L76.5075556,16.1306667 L71.9208889,16.1306667 L71.9208889,15.8568889 L73.272,15.4728889 L73.272,10.0968889 L73.2791111,10.0968889 Z" id="Shape"></path>
                        <path d="M79.3413333,10.3528889 C79.3349473,11.008567 79.3993198,11.6630206 79.5333333,12.3048889 C79.6418033,12.8404284 79.8453125,13.3522119 80.1342222,13.816 C80.4003243,14.2295908 80.7674297,14.5685514 81.2008889,14.8008889 C81.676704,15.0485673 82.2077774,15.1709344 82.744,15.1564444 C83.2539497,15.1590821 83.7620247,15.0945267 84.2551111,14.9644444 C84.8229297,14.7998792 85.3722186,14.5770658 85.8942222,14.2995556 L86.0222222,14.5555556 C85.447928,15.1270756 84.7955108,15.6142936 84.0844444,16.0026667 C83.4720018,16.3220698 82.7911696,16.4880074 82.1004444,16.4862222 C81.4547072,16.4964524 80.8136137,16.3754914 80.216,16.1306667 C79.0659077,15.6527787 78.1710806,14.711467 77.752,13.5386667 C77.5122157,12.8863859 77.3917776,12.1962758 77.3964444,11.5013333 C77.3863148,10.7851046 77.5068018,10.0730261 77.752,9.4 C77.9784824,8.78423358 78.3199505,8.21713107 78.7582222,7.72888889 C79.1829698,7.26119778 79.6966823,6.88286364 80.2693333,6.616 C80.848854,6.34402272 81.4816151,6.20435376 82.1217778,6.20711111 C82.7184782,6.1931803 83.3119692,6.29834062 83.8675556,6.51644444 C84.3415029,6.70989625 84.7665563,7.00621924 85.112,7.384 C85.453095,7.76530656 85.7088678,8.21503024 85.8622222,8.70311111 C86.0304313,9.24033395 86.1132178,9.80064295 86.1075556,10.3635556 L79.352,10.3635556 L79.3413333,10.3528889 Z M84.056,9.752 C84.0247146,8.97579088 83.8232211,8.21594218 83.4657778,7.52622222 C83.1731445,6.98163603 82.5935124,6.65377729 81.976,6.68355556 C81.640491,6.68209114 81.3097085,6.76265073 81.0124444,6.91822222 C80.7048087,7.08076237 80.4318542,7.30178304 80.2088889,7.56888889 C79.9588316,7.86948148 79.7627464,8.21112687 79.6293333,8.57866667 C79.4743732,9.0023902 79.3844653,9.4471348 79.3626667,9.89777778 L84.056,9.752 Z" id="Shape"></path>
                        <path d="M95.0106667,7.43733333 C95.0239422,7.74415199 94.9167602,8.04400643 94.712,8.27288889 C94.284189,8.69490101 93.5966999,8.69490101 93.1688889,8.27288889 C92.9449028,8.05086701 92.8010666,7.76069313 92.76,7.448 C92.3456198,7.48316752 91.9509427,7.640296 91.6257778,7.89955556 C91.2918604,8.14206962 91.0261201,8.46659119 90.8542222,8.84177778 L90.8542222,15.4657778 L92.3333333,15.8497778 L92.3333333,16.1271111 L87.64,16.1271111 L87.64,15.8568889 L89.0622222,15.4728889 L89.0622222,8.03466667 L87.6684444,7.13511111 L87.6684444,6.94311111 L90.6693333,6.17155556 L90.7546667,6.23555556 L90.7013333,8.34044444 L90.776,8.40444444 C91.0749433,7.77939969 91.5112967,7.23000768 92.0524444,6.79733333 C92.4774941,6.43126822 93.013742,6.21952547 93.5742222,6.19644444 C93.9660808,6.16821965 94.3521597,6.30334724 94.6408889,6.56977778 C94.8748292,6.79813475 95.0079375,7.11042736 95.0106667,7.43733333 L95.0106667,7.43733333 Z" id="Shape"></path>
                        <path d="M96.2622222,7.13866667 L96.2622222,6.94666667 L99.3911111,6.17511111 L99.4764444,6.23911111 L99.4764444,15.4835556 L100.898667,15.8675556 L100.898667,16.1448889 L96.1768889,16.1448889 L96.1768889,15.8568889 L97.6773333,15.4728889 L97.6773333,8.03466667 L96.2622222,7.13866667 Z M97.3751111,3.05688889 C97.3745607,2.7258267 97.5019493,2.40735509 97.7306667,2.168 C97.957708,1.90989657 98.2865137,1.76433833 98.6302222,1.76977778 C98.9390818,1.76389183 99.2369799,1.88423914 99.4550805,2.10301079 C99.673181,2.32178244 99.7926126,2.62004883 99.7857778,2.92888889 C99.7892573,3.26682868 99.6618437,3.59300765 99.4302222,3.83911111 C99.1959165,4.09924546 98.8592966,4.24351112 98.5093333,4.23377778 C98.2030204,4.24567371 97.9063955,4.12521032 97.6951111,3.90311111 C97.4789221,3.67558787 97.3635644,3.37053067 97.3751111,3.05688889 L97.3751111,3.05688889 Z" id="Shape"></path>
                        <path d="M110.427556,8.12355556 C110.439832,8.46161549 110.321411,8.79141234 110.096889,9.04444444 C109.887666,9.27860427 109.585895,9.40867807 109.272,9.4 C108.925938,9.41756244 108.592093,9.26977333 108.372444,9.00177778 C108.164217,8.75253179 108.050865,8.43766512 108.052444,8.11288889 C108.049637,7.8698801 108.093076,7.62855484 108.180444,7.40177778 C108.262398,7.19160895 108.382997,6.99865175 108.536,6.83288889 C108.239888,6.77353639 107.938435,6.74494009 107.636444,6.74755556 C107.192326,6.74756407 106.752141,6.83077724 106.338667,6.99288889 C105.910812,7.16215833 105.526731,7.42591015 105.215111,7.76444444 C104.864285,8.1522159 104.597908,8.60868911 104.432889,9.10488889 C104.226193,9.74169522 104.128816,10.4089036 104.144889,11.0782222 C104.140172,11.6185212 104.215661,12.1565292 104.368889,12.6746667 C104.505618,13.142496 104.731378,13.5795296 105.033778,13.9617778 C105.321595,14.322769 105.6859,14.6154268 106.100444,14.8186667 C106.552442,15.0321821 107.047766,15.1380621 107.547556,15.128 C108.065893,15.1297814 108.581858,15.0579533 109.08,14.9146667 C109.592219,14.7643423 110.090631,14.5704493 110.569778,14.3351111 L110.676444,14.6124444 C110.179782,15.1532071 109.592615,15.6032082 108.941333,15.9422222 C108.321537,16.2761765 107.629359,16.4531888 106.925333,16.4577778 C106.275299,16.4643734 105.630267,16.3435809 105.026667,16.1022222 C104.461292,15.8761217 103.950002,15.5332423 103.526222,15.096 C103.094981,14.6448097 102.763105,14.1082354 102.552,13.5208889 C102.312216,12.8686081 102.191778,12.178498 102.196444,11.4835556 C102.190499,10.7676062 102.324569,10.0573993 102.591111,9.39288889 C102.842049,8.76343808 103.212753,8.18866548 103.682667,7.70044444 C104.159573,7.22917448 104.72677,6.85910575 105.350222,6.61244444 C106.026332,6.33317444 106.7521,6.19406894 107.483556,6.20355556 C108.241923,6.16530728 108.993827,6.3601075 109.638222,6.76177778 C110.116817,7.05093168 110.414525,7.56454502 110.427556,8.12355556 Z" id="Shape"></path>
                        <path d="M119.501333,14.9182222 C119.479584,15.199332 119.650651,15.4595883 119.917333,15.5511111 C120.369076,15.6687853 120.840981,15.6869821 121.300444,15.6044444 L121.343111,15.8391111 C121.211971,15.9261924 121.07118,15.9977811 120.923556,16.0524444 C120.745778,16.1235556 120.552593,16.1911111 120.344,16.2551111 C120.135915,16.3192417 119.924674,16.3726453 119.711111,16.4151111 C119.506316,16.4568721 119.297897,16.4783095 119.088889,16.4791111 C118.737694,16.5057252 118.392727,16.3755489 118.146667,16.1235556 C117.89766,15.765667 117.772772,15.3360498 117.791111,14.9004444 L117.705778,14.8577778 C117.24728,15.326853 116.724058,15.7279501 116.152,16.0488889 C115.638018,16.3364693 115.059185,16.4882142 114.470222,16.4897778 C113.860938,16.5207849 113.262924,16.3172056 112.799111,15.9208889 C112.374336,15.5189629 112.146944,14.9511334 112.176889,14.3671111 C112.170206,13.9051154 112.313694,13.4534373 112.585778,13.08 C112.893611,12.6773722 113.283964,12.3452083 113.730667,12.1057778 C114.282862,11.8014536 114.868772,11.5627936 115.476444,11.3946667 C116.206897,11.1896918 116.95229,11.0422775 117.705778,10.9537778 L117.705778,9.34666667 C117.751509,8.73508706 117.523607,8.13472756 117.083556,7.70755556 C116.642032,7.33315936 116.076244,7.13779752 115.497778,7.16 C114.953999,7.16819061 114.416402,7.27667433 113.912,7.48 C114.127793,7.64668646 114.303882,7.8592082 114.427556,8.10222222 C114.522248,8.29620945 114.573224,8.50861064 114.576889,8.72444444 C114.577735,8.98803084 114.478633,9.24213928 114.299556,9.43555556 C114.118741,9.63711651 113.859173,9.75002853 113.588444,9.74488889 C113.301027,9.76251291 113.021144,9.64872902 112.827556,9.43555556 C112.650195,9.23053996 112.555178,8.96702711 112.560889,8.696 C112.566424,8.33991625 112.700247,7.99778436 112.937778,7.73244444 C113.213433,7.41153741 113.547684,7.1460669 113.922667,6.95022222 C114.357363,6.71773614 114.818049,6.53751951 115.295111,6.41333333 C115.794857,6.27901081 116.310073,6.21087315 116.827556,6.21066667 C117.775704,6.21066667 118.461926,6.45718519 118.886222,6.95022222 C119.310519,7.44325926 119.525037,8.1757037 119.529778,9.14755556 L119.529778,14.9146667 L119.501333,14.9182222 Z M117.702222,11.576 C117.122688,11.5646861 116.543851,11.6219731 115.977778,11.7466667 C115.578022,11.8339242 115.196584,11.9903498 114.850667,12.2088889 C114.586924,12.376258 114.375128,12.6139138 114.239111,12.8951111 C114.119303,13.153583 114.057415,13.4351111 114.057778,13.72 C114.040886,14.1181338 114.1918,14.5050918 114.473778,14.7866667 C114.782715,15.0617437 115.187835,15.2035994 115.600889,15.1813333 C116.343772,15.1438707 117.065768,14.9227518 117.702222,14.5377778 L117.702222,11.5902222 L117.702222,11.576 Z" id="Shape"></path>
                        <path d="M131.391111,15.4764444 L132.813333,15.8604444 L132.813333,16.1377778 L128.240889,16.1377778 L128.240889,15.8568889 L129.592,15.4728889 L129.592,10.0968889 C129.640832,9.45924056 129.478398,8.82324906 129.129778,8.28711111 C128.82163,7.89362963 128.301333,7.69688889 127.568889,7.69688889 C127.155143,7.69123655 126.742527,7.74146798 126.342222,7.84622222 C125.928462,7.97039072 125.530988,8.14346492 125.158222,8.36177778 L125.158222,15.4728889 L126.488,15.8568889 L126.488,16.1342222 L121.936889,16.1342222 L121.936889,15.8568889 L123.359111,15.4728889 L123.359111,8.03466667 L121.965333,7.13511111 L121.965333,6.94311111 L124.944889,6.17155556 L125.030222,6.23555556 L124.987556,7.94933333 L125.072889,7.992 C126.36237,6.79259259 127.587852,6.19288889 128.749333,6.19288889 C129.175044,6.1798007 129.598156,6.26369371 129.986667,6.43822222 C130.30901,6.59046871 130.589623,6.81861873 130.804444,7.10311111 C131.015522,7.38833905 131.168907,7.71201824 131.256,8.056 C131.349446,8.41954048 131.396045,8.79353326 131.394667,9.16888889 L131.394667,15.4693333 L131.391111,15.4764444 Z" id="Shape"></path>
                        <path d="M149.993778,16.1413333 L138.868444,16.1413333 L138.868444,15.7857778 L141.001778,15.4017778 L141.001778,3.23822222 L138.868444,2.85422222 L138.868444,2.49866667 L145.268444,2.49866667 L145.268444,2.85422222 L143.135111,3.23822222 L143.135111,15.4124444 L146.335111,15.4124444 C146.597331,15.417154 146.859367,15.3957147 147.117333,15.3484444 C147.306822,15.3129865 147.48857,15.2443797 147.654222,15.1457778 C147.810382,15.0479663 147.951678,14.9282243 148.073778,14.7902222 C148.218362,14.6260341 148.353683,14.4539153 148.479111,14.2746667 L150.342222,11.8746667 L150.534222,11.96 L149.993778,16.1413333 Z" id="Shape"></path>
                        <path d="M152.006222,7.13866667 L152.006222,6.94666667 L155.135111,6.17511111 L155.220444,6.23911111 L155.220444,15.4835556 L156.642667,15.8675556 L156.642667,16.1448889 L151.920889,16.1448889 L151.920889,15.8568889 L153.421333,15.4728889 L153.421333,8.03466667 L152.006222,7.13866667 Z M153.122667,3.05688889 C153.122116,2.7258267 153.249505,2.40735509 153.478222,2.168 C153.705264,1.90989657 154.034069,1.76433833 154.377778,1.76977778 C154.686637,1.76389183 154.984535,1.88423914 155.202636,2.10301079 C155.420737,2.32178244 155.540168,2.62004883 155.533333,2.92888889 C155.536813,3.26682868 155.409399,3.59300765 155.177778,3.83911111 C154.943472,4.09924546 154.606852,4.24351112 154.256889,4.23377778 C153.950576,4.24567371 153.653951,4.12521032 153.442667,3.90311111 C153.226478,3.67558787 153.11112,3.37053067 153.122667,3.05688889 L153.122667,3.05688889 Z" id="Shape"></path>
                        <path d="M161.456889,7.52266667 L161.456889,15.4728889 L163.192,15.8568889 L163.192,16.1342222 L158.256889,16.1342222 L158.256889,15.8568889 L159.679111,15.4728889 L159.679111,7.52266667 L157.752,7.52266667 L157.752,7.16711111 L159.679111,6.60888889 L159.679111,5.58133333 C159.647539,4.70481729 159.791391,3.83082577 160.102222,3.01066667 C160.378583,2.36142102 160.797885,1.78290544 161.328889,1.31822222 C161.697897,0.984659902 162.125984,0.722984386 162.591111,0.546666667 C163.046044,0.376907131 163.527759,0.2901985 164.013333,0.290666667 C164.473738,0.258499025 164.931393,0.383883899 165.311111,0.646222222 C165.58308,0.843174692 165.746428,1.15669743 165.752,1.49244444 C165.766132,1.78465585 165.662374,2.07031016 165.464,2.28533333 C165.256988,2.49065638 164.972954,2.59910589 164.681778,2.584 C164.333201,2.5760133 163.997496,2.45074989 163.728889,2.22844444 C163.337485,1.88815281 163.014146,1.47674007 162.776,1.016 C162.300183,1.31137679 161.946741,1.76832606 161.780444,2.30311111 C161.544409,3.10223791 161.439934,3.93443812 161.471111,4.76711111 L161.471111,6.67288889 L164.127111,6.67288889 L164.127111,7.52977778 L161.456889,7.52977778 L161.456889,7.52266667 Z" id="Shape"></path>
                        <path d="M166.754667,10.3528889 C166.748281,11.008567 166.812653,11.6630206 166.946667,12.3048889 C167.055137,12.8404284 167.258646,13.3522119 167.547556,13.816 C167.813658,14.2295908 168.180763,14.5685514 168.614222,14.8008889 C169.090037,15.0485673 169.621111,15.1709344 170.157333,15.1564444 C170.667283,15.1590821 171.175358,15.0945267 171.668444,14.9644444 C172.236263,14.7998792 172.785552,14.5770658 173.307556,14.2995556 L173.435556,14.5555556 C172.861261,15.1270756 172.208844,15.6142936 171.497778,16.0026667 C170.885335,16.3220698 170.204503,16.4880074 169.513778,16.4862222 C168.868041,16.4964524 168.226947,16.3754914 167.629333,16.1306667 C166.479241,15.6527787 165.584414,14.711467 165.165333,13.5386667 C164.925549,12.8863859 164.805111,12.1962758 164.809778,11.5013333 C164.799648,10.7851046 164.920135,10.0730261 165.165333,9.4 C165.391816,8.78423358 165.733284,8.21713107 166.171556,7.72888889 C166.596303,7.26119778 167.110016,6.88286364 167.682667,6.616 C168.262187,6.34402272 168.894948,6.20435376 169.535111,6.20711111 C170.131812,6.1931803 170.725303,6.29834062 171.280889,6.51644444 C171.754836,6.70989625 172.17989,7.00621924 172.525333,7.384 C172.866428,7.76530656 173.122201,8.21503024 173.275556,8.70311111 C173.443765,9.24033395 173.526551,9.80064295 173.520889,10.3635556 L166.765333,10.3635556 L166.754667,10.3528889 Z M171.469333,9.752 C171.438048,8.97579088 171.236554,8.21594218 170.879111,7.52622222 C170.586478,6.98163603 170.006846,6.65377729 169.389333,6.68355556 C169.053824,6.68209114 168.723042,6.76265073 168.425778,6.91822222 C168.118142,7.08076237 167.845188,7.30178304 167.622222,7.56888889 C167.372106,7.86944035 167.176014,8.21109653 167.042667,8.57866667 C166.887707,9.0023902 166.797799,9.4471348 166.776,9.89777778 L171.469333,9.752 Z" id="Shape"></path>
                    </g>
                </g>
            </g>
        </g>
    </g>
</svg>